<?xml version="1.0" encoding="UTF-8" standalone="no"?>
<svg
   xmlns:dc="http://purl.org/dc/elements/1.1/"
   xmlns:cc="http://creativecommons.org/ns#"
   xmlns:rdf="http://www.w3.org/1999/02/22-rdf-syntax-ns#"
   xmlns:svg="http://www.w3.org/2000/svg"
   xmlns="http://www.w3.org/2000/svg"
   id="svg8"
   version="1.1"
   viewBox="0 0 206.16201 206.38007"
   height="206.38007pt"
   width="206.162pt">
  <defs
     id="defs2" />
  <metadata
     id="metadata5">
    <rdf:RDF>
      <cc:Work
         rdf:about="">
        <dc:format>image/svg+xml</dc:format>
        <dc:type
           rdf:resource="http://purl.org/dc/dcmitype/StillImage" />
        <dc:title></dc:title>
      </cc:Work>
    </rdf:RDF>
  </metadata>
  <g
     transform="translate(-3.0401402,-44.81131)"
     id="layer1">
    <path
       transform="scale(0.26458333)"
       id="path10873"
       d="m 270.27539,169.86719 c -0.91647,0.0238 -1.85017,0.53056 -2.41601,1.44726 -0.23698,15.8097 -0.4558,30.63844 -0.65626,44.58008 -0.20046,13.94164 -0.38405,26.99649 -0.55078,39.25586 -0.16671,12.25937 -0.31728,23.72346 -0.45312,34.48633 -0.13584,10.76287 -0.25553,20.82323 -0.36328,30.27539 -0.21547,18.90431 -0.37804,35.37426 -0.49805,50.15039 -0.12004,14.77613 -0.199,27.85997 -0.24609,39.99414 -0.0176,4.52958 -0.0119,8.49909 -0.0215,12.80274 -3.33394,0.007 -6.32732,0.005 -9.80469,0.0156 -12.14377,0.0385 -25.27082,0.1029 -40.14062,0.20117 -14.8698,0.0987 -31.48288,0.23171 -50.59766,0.41211 -9.55736,0.0903 -19.73917,0.19174 -30.64257,0.30664 -10.90341,0.1149 -22.52747,0.24247 -34.966801,0.38477 -12.439333,0.14211 -25.694311,0.30038 -39.859375,0.47265 -14.165103,0.17235 -29.241548,0.35919 -45.322266,0.56446 v -0.002 c -0.929209,0.008 -1.556294,1.66714 -1.58789,2.90625 -0.03024,1.23916 0.465181,2.47192 1.58789,2.875 16.080832,0.23433 31.165306,0.44911 45.34375,0.64258 14.178406,0.19351 27.450882,0.36746 39.914063,0.52344 12.463139,0.15609 24.115779,0.29386 35.050779,0.41601 10.93497,0.12208 21.15214,0.22652 30.7461,0.31836 19.18794,0.18331 35.88156,0.31023 50.82812,0.39258 14.9466,0.0824 28.14741,0.12104 40.34961,0.13086 3.22585,0.003 5.98379,-0.0107 9.08398,-0.0117 -0.003,3.56978 -0.0206,7.44171 -0.0195,10.94532 0.003,10.97846 0.0254,21.7496 0.0566,33.05859 0.031,11.30895 0.0709,23.15552 0.10743,36.28125 0.0367,13.12573 0.0705,27.5322 0.0898,43.96094 0.0193,16.42873 0.0185,30.80176 0.01,43.88086 -0.009,13.07913 -0.0277,24.86292 -0.043,36.11132 -0.0151,11.24841 -0.0262,21.96185 -0.0254,32.89844 2.5e-4,4.29767 0.0164,9.0422 0.0215,13.45508 -3.4431,0.007 -6.54285,0.004 -10.13867,0.0156 -12.14377,0.0386 -25.27084,0.10291 -40.14063,0.20118 -14.8698,0.0986 -31.48288,0.23171 -50.59765,0.41211 -9.55739,0.0903 -19.74113,0.19174 -30.64453,0.30664 -10.90341,0.11489 -22.52747,0.24246 -34.966801,0.38476 -12.439333,0.14211 -25.694311,0.29843 -39.859375,0.47071 -14.165103,0.17234 -29.239595,0.36114 -45.320313,0.5664 v -0.002 c -0.980503,-0.0206 -1.558247,1.66518 -1.589843,2.9043 -0.03024,1.23915 0.467135,2.47386 1.589843,2.87695 16.080832,0.23433 31.163353,0.44715 45.341797,0.64062 14.178406,0.19352 27.452835,0.36746 39.916016,0.52344 12.463146,0.1561 24.115776,0.29386 35.050776,0.41602 10.93497,0.12208 21.15213,0.22847 30.7461,0.32031 19.18795,0.18331 35.88157,0.31022 50.82812,0.39258 14.94661,0.0824 28.14546,0.12103 40.34766,0.13086 3.35694,0.003 6.23166,-0.0105 9.45312,-0.0117 0.007,3.47497 0.004,6.60588 0.0156,10.23633 0.0385,12.14377 0.10076,25.27083 0.19922,40.14062 0.0985,14.8698 0.23361,31.48289 0.41406,50.59766 0.0902,9.55736 0.19182,19.74112 0.30664,30.64453 0.11486,10.90341 0.24254,22.52746 0.38477,34.9668 0.14222,12.43933 0.29831,25.69235 0.4707,39.85742 0.17238,14.1651 0.36113,29.24155 0.56641,45.32226 0.42232,0.99632 1.66514,1.55825 2.90429,1.58985 1.23916,0.0302 2.47387,-0.46714 2.87696,-1.58985 0.23444,-16.08083 0.44715,-31.16335 0.64062,-45.34179 0.19348,-14.17841 0.36744,-27.45284 0.52344,-39.91602 0.15602,-12.46314 0.29396,-24.11578 0.41602,-35.05078 0.12204,-10.93497 0.22869,-21.15214 0.32031,-30.74609 0.18319,-19.18795 0.30814,-35.88157 0.39062,-50.82813 0.0825,-14.94656 0.12299,-28.14545 0.13281,-40.34766 0.003,-3.39092 -0.0102,-6.29597 -0.0117,-9.54882 4.71902,-0.008 9.78011,-0.004 14.35742,-0.0195 10.95481,-0.034 21.66078,-0.0834 32.86523,-0.13476 11.20452,-0.0514 22.9083,-0.10485 35.85938,-0.14453 12.95112,-0.0397 27.14904,-0.0664 43.34375,-0.0664 16.54711,-0.0782 31.02778,-0.13975 44.19531,-0.19531 13.16753,-0.0556 25.02245,-0.10434 36.31836,-0.15234 11.29591,-0.048 22.03267,-0.0948 32.96484,-0.15039 3.3407,-0.017 7.03299,-0.0419 10.43164,-0.0606 0.008,4.09622 0.006,7.84236 0.0195,12.15234 0.0385,12.14378 0.1029,25.27083 0.20117,40.14063 0.0986,14.86979 0.23171,31.48288 0.41211,50.59765 0.0903,9.55737 0.19174,19.74113 0.30664,30.64453 0.11489,10.90341 0.24246,22.52747 0.38476,34.9668 0.14211,12.43933 0.29843,25.69431 0.47071,39.85938 0.17234,14.1651 0.36114,29.23959 0.5664,45.32031 h -0.002 c 0.0197,1.33188 1.66514,1.55825 2.9043,1.58984 1.23915,0.0302 2.47386,-0.46713 2.87695,-1.58984 0.23433,-16.08083 0.44715,-31.16335 0.64062,-45.3418 0.19352,-14.1784 0.36746,-27.45283 0.52344,-39.91601 0.1561,-12.46315 0.29386,-24.11578 0.41602,-35.05078 0.12208,-10.93497 0.22847,-21.15215 0.32031,-30.7461 0.18331,-19.18794 0.31022,-35.88157 0.39258,-50.82812 0.0824,-14.9466 0.12103,-28.14546 0.13086,-40.34766 0.004,-4.08798 -0.0131,-7.61961 -0.0156,-11.51172 4.41545,-0.0262 8.50203,-0.0459 13.15625,-0.0762 12.07639,-0.0782 25.1016,-0.17228 39.83008,-0.28906 14.72848,-0.11679 31.16034,-0.25608 50.04883,-0.42578 9.44424,-0.085 19.50256,-0.17839 30.26953,-0.2793 10.767,-0.10129 22.24132,-0.21065 34.51953,-0.33008 12.27817,-0.11905 25.35995,-0.2474 39.33789,-0.38672 13.9779,-0.13908 28.85263,-0.29016 44.71875,-0.45117 1.01193,-0.48998 1.47108,-1.38627 1.44727,-2.30273 -0.0227,-0.91646 -0.53058,-1.85218 -1.44727,-2.41797 -15.80969,-0.23698 -30.63842,-0.45582 -44.58008,-0.65625 -13.94162,-0.20032 -26.99651,-0.38208 -39.25586,-0.54883 -12.25935,-0.16668 -23.72348,-0.3171 -34.48632,-0.45313 -10.76289,-0.13568 -20.8252,-0.25751 -30.27735,-0.36523 -18.90433,-0.21543 -35.3723,-0.37797 -50.14844,-0.49805 -14.77613,-0.12019 -27.85996,-0.19727 -39.99414,-0.24414 -4.65258,-0.0181 -8.73507,-0.0138 -13.15039,-0.0234 -0.008,-4.29096 -0.004,-8.92463 -0.0176,-13.10156 -0.034,-10.95481 -0.0834,-21.66079 -0.13477,-32.86523 -0.0514,-11.20453 -0.10485,-22.9083 -0.14453,-35.85938 -0.0397,-12.95112 -0.0664,-27.14904 -0.0664,-43.34375 -0.0782,-16.54711 -0.13975,-31.02778 -0.19531,-44.19531 -0.0556,-13.16753 -0.10434,-25.02245 -0.15234,-36.31836 -0.048,-11.29591 -0.0948,-22.03267 -0.1504,-32.96484 -0.0207,-4.0794 -0.051,-8.56537 -0.0742,-12.73828 4.76772,-0.028 9.21389,-0.0492 14.25781,-0.082 12.07638,-0.0782 25.1016,-0.17227 39.83008,-0.28906 14.72848,-0.11679 31.16033,-0.25608 50.04882,-0.42578 9.44425,-0.085 19.50257,-0.17838 30.26954,-0.2793 10.767,-0.10129 22.24327,-0.21064 34.52148,-0.33007 12.27817,-0.11906 25.358,-0.24741 39.33594,-0.38672 13.9779,-0.13909 28.85263,-0.28821 44.71875,-0.44922 1.01193,-0.48998 1.47107,-1.38823 1.44726,-2.30469 -0.0227,-0.91646 -0.53058,-1.85217 -1.44726,-2.41797 -15.80969,-0.23697 -30.63842,-0.45582 -44.58008,-0.65625 -13.94162,-0.20031 -26.99456,-0.38207 -39.25391,-0.54883 -12.25935,-0.16667 -23.72543,-0.3171 -34.48828,-0.45312 -10.76288,-0.13569 -20.82324,-0.25752 -30.27539,-0.36524 -18.90433,-0.21543 -35.3723,-0.37797 -50.14844,-0.49804 -14.77613,-0.12019 -27.85996,-0.19728 -39.99414,-0.24414 -5.05861,-0.0197 -9.51638,-0.0156 -14.29882,-0.0254 -0.0235,-3.92786 -0.0396,-7.52384 -0.0664,-11.64258 -0.0782,-12.07639 -0.17228,-25.10159 -0.28906,-39.83008 -0.11679,-14.72848 -0.25608,-31.16034 -0.42578,-50.04883 -0.085,-9.44425 -0.17839,-19.50254 -0.2793,-30.26953 -0.10129,-10.76698 -0.21065,-22.24132 -0.33008,-34.51953 -0.11905,-12.27821 -0.24737,-25.35997 -0.38672,-39.33789 -0.13908,-13.97792 -0.2902,-28.85263 -0.45117,-44.71875 -0.49002,-1.01194 -1.38627,-1.47107 -2.30273,-1.44727 -0.91646,0.0238 -1.85214,0.53056 -2.41797,1.44727 -0.23698,15.80969 -0.45582,30.63844 -0.65625,44.58008 -0.20032,13.94163 -0.38212,26.99649 -0.54883,39.25586 -0.16668,12.25936 -0.3171,23.72345 -0.45313,34.48632 -0.13568,10.76287 -0.25751,20.82519 -0.36523,30.27735 -0.21543,18.90431 -0.37797,35.37231 -0.49805,50.14844 -0.12019,14.77614 -0.19727,27.85996 -0.24414,39.99414 -0.016,4.10668 -0.0102,7.68942 -0.0195,11.60742 -3.34273,-0.003 -6.97977,-0.0186 -10.26562,-0.0176 -10.97847,0.003 -21.74961,0.0276 -33.0586,0.0586 -11.30895,0.0302 -23.15552,0.0692 -36.28125,0.10547 -13.12573,0.0378 -27.53021,0.0702 -43.95898,0.0899 -16.4287,0.0189 -30.80376,0.0193 -43.88282,0.0117 -13.07913,-0.008 -24.86288,-0.0259 -36.11132,-0.041 -11.24841,-0.0151 -21.96185,-0.0273 -32.89844,-0.0273 -4.69194,2.9e-4 -9.85516,0.0173 -14.68945,0.0234 -0.0255,-4.3032 -0.0448,-8.27609 -0.0742,-12.80664 -0.0784,-12.07638 -0.17247,-25.1016 -0.28907,-39.83008 -0.11659,-14.72848 -0.25587,-31.16033 -0.42578,-50.04882 -0.085,-9.44425 -0.17815,-19.50255 -0.27929,-30.26954 -0.10114,-10.76698 -0.21084,-22.24132 -0.33008,-34.51953 -0.11925,-12.2782 -0.24746,-25.35997 -0.38672,-39.33789 -0.13924,-13.97792 -0.29004,-28.85262 -0.45117,-44.71875 -0.49001,-1.01193 -1.38821,-1.47107 -2.30469,-1.44726 z m 255.66992,262.60547 c -0.005,4.21347 -0.0247,8.74307 -0.0234,12.85937 0.003,10.97847 0.0256,21.75156 0.0566,33.06055 0.0302,11.30895 0.0711,23.15356 0.10742,36.2793 0.0378,13.12573 0.0702,27.53216 0.0898,43.96093 0.0189,16.4287 0.0193,30.80177 0.0117,43.88086 -0.008,13.07909 -0.0278,24.86484 -0.043,36.11328 -0.0151,11.24841 -0.0254,21.9599 -0.0254,32.89649 2.4e-4,3.9165 0.0153,8.25293 0.0195,12.26172 -3.45299,-0.003 -7.204,-0.0206 -10.5957,-0.0195 -10.97847,0.003 -21.75156,0.0257 -33.06055,0.0566 -11.30895,0.0302 -23.15356,0.0711 -36.2793,0.10742 -13.12573,0.0378 -27.53216,0.0702 -43.96093,0.0898 -16.4287,0.0189 -30.80181,0.0193 -43.88086,0.0117 -13.07913,-0.008 -24.86484,-0.0278 -36.11328,-0.043 -11.24841,-0.0151 -21.95989,-0.0254 -32.89649,-0.0254 -4.32761,2.7e-4 -9.10407,0.0163 -13.54883,0.0215 -0.008,-4.68628 -0.005,-9.71491 -0.0195,-14.26172 -0.0348,-10.95481 -0.0855,-21.66079 -0.13672,-32.86524 -0.0512,-11.20448 -0.10289,-22.90829 -0.14257,-35.85937 -0.0396,-12.95112 -0.0664,-27.14901 -0.0664,-43.34375 -0.0782,-16.54708 -0.14186,-31.02778 -0.19727,-44.19532 -0.0554,-13.16753 -0.1025,-25.02244 -0.15039,-36.31836 -0.0479,-11.29591 -0.0968,-22.03267 -0.15234,-32.96484 -0.0176,-3.45266 -0.0432,-7.26591 -0.0625,-10.78125 5.09631,-0.008 10.52783,-0.003 15.45508,-0.0195 10.95481,-0.034 21.65883,-0.0834 32.86328,-0.13477 11.20452,-0.0514 22.90829,-0.10484 35.85937,-0.14453 12.95112,-0.0397 27.151,-0.0664 43.34571,-0.0664 16.54711,-0.0782 31.02582,-0.13976 44.19336,-0.19532 13.16753,-0.0555 25.02244,-0.10434 36.31836,-0.15234 11.29591,-0.048 22.03267,-0.0948 32.96484,-0.15039 3.22498,-0.0164 6.79201,-0.0407 10.07031,-0.0586 z"
       style="fill:#000000;fill-opacity:1;stroke:#000000;stroke-width:1.00157475;stroke-linecap:butt;stroke-linejoin:miter;stroke-miterlimit:4;stroke-dasharray:none;stroke-opacity:1" />
  </g>
</svg>
